<?xml version="1.0" encoding="UTF-8" standalone="no"?>
<!-- Created with Inkscape (http://www.inkscape.org/) -->
<svg
   xmlns:dc="http://purl.org/dc/elements/1.1/"
   xmlns:cc="http://creativecommons.org/ns#"
   xmlns:rdf="http://www.w3.org/1999/02/22-rdf-syntax-ns#"
   xmlns:svg="http://www.w3.org/2000/svg"
   xmlns="http://www.w3.org/2000/svg"
   xmlns:sodipodi="http://sodipodi.sourceforge.net/DTD/sodipodi-0.dtd"
   xmlns:inkscape="http://www.inkscape.org/namespaces/inkscape"
   width="181.0325"
   height="93.896248"
   id="svg2606"
   sodipodi:version="0.32"
   inkscape:version="0.46"
   version="1.0"
   sodipodi:docname="Université d'Artois.svg"
   inkscape:output_extension="org.inkscape.output.svg.inkscape">
  <defs
     id="defs2608">
    <inkscape:perspective
       sodipodi:type="inkscape:persp3d"
       inkscape:vp_x="0 : 526.18109 : 1"
       inkscape:vp_y="0 : 1000 : 0"
       inkscape:vp_z="744.09448 : 526.18109 : 1"
       inkscape:persp3d-origin="372.04724 : 350.78739 : 1"
       id="perspective2614" />
  </defs>
  <sodipodi:namedview
     id="base"
     pagecolor="#ffffff"
     bordercolor="#666666"
     borderopacity="1.0"
     inkscape:pageopacity="0.0"
     inkscape:pageshadow="2"
     inkscape:zoom="5.1261514"
     inkscape:cx="90.51625"
     inkscape:cy="46.948123"
     inkscape:document-units="px"
     inkscape:current-layer="layer1"
     showgrid="false"
     inkscape:window-width="1024"
     inkscape:window-height="712"
     inkscape:window-x="-4"
     inkscape:window-y="-4" />
  <metadata
     id="metadata2611">
    <rdf:RDF>
      <cc:Work
         rdf:about="">
        <dc:format>image/svg+xml</dc:format>
        <dc:type
           rdf:resource="http://purl.org/dc/dcmitype/StillImage" />
      </cc:Work>
    </rdf:RDF>
  </metadata>
  <g
     inkscape:label="Calque 1"
     inkscape:groupmode="layer"
     id="layer1"
     transform="translate(839.08768,97.443085)">
    <path
       d="M -828.83018,-14.011835 L -828.96018,-9.5755852 C -829.03143,-6.8755852 -829.14268,-6.4543352 -830.09893,-5.5155852 C -830.85018,-4.7780852 -831.99393,-4.3768352 -833.38768,-4.3768352 C -834.49268,-4.3768352 -835.42893,-4.6330852 -836.18268,-5.1480852 C -836.58643,-5.4068352 -836.93893,-5.7718352 -837.19518,-6.1755852 C -837.67268,-6.9093352 -837.82143,-7.6293352 -837.82143,-9.1743352 L -837.82143,-13.766835 C -837.82143,-15.314335 -838.02018,-15.661835 -839.08768,-16.046835 L -839.08768,-16.413085 L -834.52893,-16.413085 L -834.52893,-16.046835 C -836.00018,-15.809335 -836.31018,-15.460585 -836.31018,-14.011835 L -836.31018,-9.3718352 C -836.31018,-7.9230852 -836.03768,-7.1493352 -835.30018,-6.4168352 C -834.65768,-5.7718352 -833.86893,-5.4643352 -832.96643,-5.4643352 C -832.08518,-5.4643352 -831.29143,-5.7943352 -830.72518,-6.4168352 C -830.13643,-7.0605852 -829.97143,-7.7005852 -829.97143,-9.2855852 L -829.97143,-9.7068352 L -830.09893,-14.011835 C -830.13643,-15.476835 -830.37518,-15.768085 -831.73518,-16.046835 L -831.73518,-16.413085 L -827.43268,-16.413085 L -827.43268,-16.046835 C -828.59143,-15.681835 -828.79518,-15.385585 -828.83018,-14.011835"
       style="fill:#193476;fill-opacity:1;fill-rule:nonzero;stroke:none"
       id="path2538" />
    <path
       d="M -815.83268,-14.011835 L -816.09143,-4.8918352 L -816.79018,-4.2293352 L -823.83018,-13.951835 L -823.70268,-7.0405852 C -823.66518,-5.5155852 -823.37018,-5.2005852 -821.78768,-5.0180852 L -821.78768,-4.6330852 L -826.73518,-4.6330852 L -826.73518,-5.0180852 C -825.26393,-5.2393352 -825.02518,-5.5155852 -824.96893,-7.0405852 L -824.71268,-12.998085 C -824.71268,-15.073085 -824.96893,-15.514335 -826.47643,-16.046835 L -826.47643,-16.413085 L -823.73643,-16.413085 L -816.97268,-7.0405852 L -817.10143,-14.011835 C -817.14018,-15.499335 -817.41393,-15.809335 -818.88518,-16.046835 L -818.88518,-16.413085 L -814.06768,-16.413085 L -814.06768,-16.046835 C -815.52143,-15.809335 -815.79768,-15.514335 -815.83268,-14.011835"
       style="fill:#193476;fill-opacity:1;fill-rule:nonzero;stroke:none"
       id="path2540" />
    <path
       d="M -813.24268,-4.6330852 L -813.24268,-5.0180852 C -811.77143,-5.2393352 -811.47518,-5.5868352 -811.47518,-7.0405852 L -811.47518,-14.011835 C -811.47518,-15.420585 -811.75393,-15.768085 -813.11393,-16.046835 L -813.11393,-16.413085 L -808.16643,-16.413085 L -808.16643,-16.046835 C -809.63768,-15.809335 -809.95018,-15.460585 -809.95018,-14.011835 L -809.95018,-7.0405852 C -809.95018,-5.5868352 -809.63768,-5.2393352 -808.16643,-5.0180852 L -808.16643,-4.6330852 L -813.24268,-4.6330852 z"
       style="fill:#193476;fill-opacity:1;fill-rule:nonzero;stroke:none"
       id="path2542" />
    <path
       d="M -798.48018,-14.524335 L -801.66143,-6.0305852 C -801.90018,-5.3843352 -802.08268,-5.0543352 -802.67143,-4.3205852 L -806.34768,-14.834335 C -806.55018,-15.405585 -806.82643,-15.681835 -807.61768,-16.046835 L -807.61768,-16.413085 L -803.68268,-16.413085 L -803.68268,-16.046835 C -804.49018,-15.938085 -804.71268,-15.768085 -804.71268,-15.278085 C -804.71268,-15.039335 -804.58393,-14.445585 -804.45518,-14.083085 L -802.04643,-7.2255852 L -800.00518,-13.439335 C -799.84018,-13.951835 -799.74893,-14.413085 -799.74893,-14.799335 C -799.74893,-15.420585 -800.06268,-15.699335 -801.14393,-16.046835 L -801.14393,-16.413085 L -797.10018,-16.413085 L -797.10018,-16.105585 C -797.92893,-15.644335 -798.16768,-15.385585 -798.48018,-14.524335"
       style="fill:#193476;fill-opacity:1;fill-rule:nonzero;stroke:none"
       id="path2544" />
    <path
       d="M -788.47893,-4.6330852 L -796.58518,-4.6330852 L -796.58518,-5.0180852 C -795.11768,-5.2393352 -794.82393,-5.5868352 -794.82393,-7.0405852 L -794.82393,-13.766835 C -794.82393,-15.314335 -795.00643,-15.661835 -796.09018,-16.046835 L -796.09018,-16.413085 L -788.73768,-16.413085 L -788.47893,-13.644335 L -788.86643,-13.513085 C -789.61768,-15.039335 -790.26268,-15.590585 -791.40143,-15.661835 L -793.29643,-15.790585 L -793.29643,-10.975585 L -791.51268,-11.029335 C -790.20893,-11.084335 -789.87893,-11.325585 -789.49143,-12.500585 L -789.10518,-12.500585 L -789.10518,-8.6943352 L -789.49143,-8.6943352 C -789.78518,-10.004335 -790.06143,-10.219335 -791.51268,-10.275585 L -793.29643,-10.335585 L -793.29643,-7.1343352 C -793.29643,-5.7718352 -792.90893,-5.3843352 -791.47518,-5.3843352 C -789.97018,-5.3843352 -789.19643,-5.9780852 -788.22268,-7.7943352 L -787.83643,-7.6855852 L -788.47893,-4.6330852 z"
       style="fill:#193476;fill-opacity:1;fill-rule:nonzero;stroke:none"
       id="path2546" />
    <path
       d="M -779.54393,-12.853085 C -779.54393,-11.894335 -779.87768,-11.178085 -780.68518,-10.404335 C -781.08893,-10.295585 -781.23768,-10.275585 -781.66143,-10.275585 C -782.26768,-10.275585 -782.50393,-10.313085 -783.09268,-10.531835 L -783.09268,-15.790585 C -782.04518,-15.768085 -781.60393,-15.681835 -781.07268,-15.405585 C -780.77643,-15.258085 -780.52018,-15.073085 -780.29893,-14.834335 C -779.80268,-14.321835 -779.54393,-13.621835 -779.54393,-12.853085 M -774.08393,-3.7505852 L -774.08393,-4.0618352 C -775.00268,-4.1405852 -775.37268,-4.2468352 -775.87018,-4.5768352 C -776.10768,-4.7443352 -776.32643,-4.9093352 -776.49393,-5.0743352 C -777.17143,-5.7543352 -777.99893,-6.8755852 -780.17268,-10.090585 C -779.19768,-11.029335 -778.84768,-11.451835 -778.53393,-12.116835 C -778.27768,-12.629335 -778.14768,-13.215585 -778.14768,-13.786835 C -778.14768,-15.440585 -779.36268,-16.546835 -781.12643,-16.546835 C -781.76893,-16.546835 -782.08268,-16.506835 -783.35143,-16.285585 L -786.14518,-16.493085 L -786.14518,-16.105585 C -784.89643,-15.605585 -784.61768,-15.184335 -784.61768,-13.766835 L -784.61768,-7.0405852 C -784.61768,-5.5868352 -784.91393,-5.2393352 -786.38518,-5.0180852 L -786.38518,-4.6330852 L -781.30893,-4.6330852 L -781.30893,-5.0180852 C -782.78268,-5.2393352 -783.09268,-5.5868352 -783.09268,-7.0405852 L -783.09268,-9.6355852 C -782.76268,-9.5955852 -782.50393,-9.5755852 -782.34143,-9.5755852 C -782.15393,-9.5755852 -781.91768,-9.5955852 -781.57018,-9.6355852 C -780.04268,-6.8018352 -779.43393,-5.9018352 -778.40643,-4.8918352 C -777.54143,-4.0443352 -776.38268,-3.5468352 -775.28143,-3.5468352 C -774.87518,-3.5468352 -774.63643,-3.5855852 -774.08393,-3.7505852"
       style="fill:#193476;fill-opacity:1;fill-rule:nonzero;stroke:none"
       id="path2548" />
    <path
       d="M -770.74018,-4.3768352 C -771.73393,-4.3768352 -772.41143,-4.5393352 -773.91893,-5.1480852 L -774.17768,-8.1793352 L -773.79143,-8.3643352 C -773.33268,-7.1493352 -773.05643,-6.6568352 -772.52393,-6.0868352 C -771.93518,-5.4643352 -771.18143,-5.0743352 -770.53893,-5.0743352 C -769.47143,-5.0743352 -768.58643,-5.9568352 -768.58643,-7.0605852 C -768.58643,-7.8343352 -768.92018,-8.2893352 -769.98643,-9.0093352 C -771.58643,-10.074335 -772.15518,-10.498085 -772.78018,-11.104335 C -773.51768,-11.803085 -773.79143,-12.444335 -773.79143,-13.459335 C -773.79143,-15.369335 -772.41143,-16.671835 -770.35393,-16.671835 C -769.56518,-16.671835 -768.97643,-16.546835 -767.70768,-16.046835 L -767.32018,-13.380585 L -767.70768,-13.200585 C -767.99768,-13.730585 -768.29393,-14.210585 -768.55268,-14.615585 C -769.16143,-15.514335 -769.91268,-15.973085 -770.76018,-15.973085 C -771.77018,-15.973085 -772.52393,-15.235585 -772.52393,-14.210585 C -772.52393,-13.698085 -772.28268,-13.050585 -771.89893,-12.611835 C -771.42018,-12.096835 -770.92518,-11.726835 -768.97643,-10.458085 C -768.47893,-10.150585 -768.09143,-9.8518352 -767.83518,-9.5755852 C -767.35768,-9.0805852 -767.08143,-8.3268352 -767.08143,-7.5155852 C -767.08143,-5.7005852 -768.60643,-4.3768352 -770.74018,-4.3768352"
       style="fill:#193476;fill-opacity:1;fill-rule:nonzero;stroke:none"
       id="path2550" />
    <path
       d="M -765.48018,-4.6330852 L -765.48018,-5.0180852 C -764.01143,-5.2393352 -763.71768,-5.5868352 -763.71768,-7.0405852 L -763.71768,-14.011835 C -763.71768,-15.420585 -763.99393,-15.768085 -765.35393,-16.046835 L -765.35393,-16.413085 L -760.40893,-16.413085 L -760.40893,-16.046835 C -761.88018,-15.809335 -762.19018,-15.460585 -762.19018,-14.011835 L -762.19018,-7.0405852 C -762.19018,-5.5868352 -761.88018,-5.2393352 -760.40893,-5.0180852 L -760.40893,-4.6330852 L -765.48018,-4.6330852 z"
       style="fill:#193476;fill-opacity:1;fill-rule:nonzero;stroke:none"
       id="path2552" />
    <path
       d="M -749.83768,-13.766835 C -750.72018,-15.164335 -751.40018,-15.605585 -752.63268,-15.605585 L -753.90143,-15.605585 L -753.90143,-7.0405852 C -753.90143,-5.7943352 -753.31268,-5.2593352 -751.62018,-5.0180852 L -751.62018,-4.6330852 L -757.57768,-4.6330852 L -757.57768,-5.0180852 C -755.96143,-5.2930852 -755.42643,-5.8105852 -755.42643,-7.0405852 L -755.42643,-15.605585 L -756.69518,-15.605585 C -757.79893,-15.605585 -758.49643,-15.146835 -759.50643,-13.766835 L -759.85643,-13.971835 L -759.25143,-16.671835 C -757.61268,-16.231835 -757.13643,-16.176835 -754.65518,-16.176835 C -752.20893,-16.176835 -751.73018,-16.231835 -750.09643,-16.671835 L -749.45393,-14.011835 L -749.83768,-13.766835 z"
       style="fill:#193476;fill-opacity:1;fill-rule:nonzero;stroke:none"
       id="path2554" />
    <path
       d="M -742.32018,-18.810585 L -745.99643,-18.056835 L -746.12768,-18.294335 L -742.81518,-20.083085 L -742.06393,-19.565585 L -742.32018,-18.810585 z M -740.79518,-4.6330852 L -748.90143,-4.6330852 L -748.90143,-5.0180852 C -747.43143,-5.2393352 -747.13768,-5.5868352 -747.13768,-7.0405852 L -747.13768,-13.766835 C -747.13768,-15.314335 -747.32268,-15.661835 -748.40643,-16.046835 L -748.40643,-16.413085 L -741.05143,-16.413085 L -740.79518,-13.644335 L -741.18143,-13.513085 C -741.93518,-15.039335 -742.57643,-15.590585 -743.71643,-15.661835 L -745.61018,-15.790585 L -745.61018,-10.975585 L -743.82518,-11.029335 C -742.52143,-11.084335 -742.19143,-11.325585 -741.80768,-12.500585 L -741.42018,-12.500585 L -741.42018,-8.6943352 L -741.80768,-8.6943352 C -742.10018,-10.004335 -742.37643,-10.219335 -743.82518,-10.275585 L -745.61018,-10.335585 L -745.61018,-7.1343352 C -745.61018,-5.7718352 -745.22268,-5.3843352 -743.79143,-5.3843352 C -742.28268,-5.3843352 -741.51393,-5.9780852 -740.53893,-7.7943352 L -740.15143,-7.6855852 L -740.79518,-4.6330852 z"
       style="fill:#193476;fill-opacity:1;fill-rule:nonzero;stroke:none"
       id="path2556" />
    <path
       d="M -724.91143,-10.694335 C -724.91143,-7.5018352 -726.75018,-5.3305852 -729.45268,-5.3305852 C -730.79268,-5.3305852 -731.38268,-5.9393352 -731.38268,-7.2993352 L -731.38268,-15.918085 C -729.49518,-15.866835 -728.68143,-15.699335 -727.57518,-15.090585 C -727.00893,-14.780585 -726.49393,-14.375585 -726.05268,-13.883085 C -725.24143,-12.979335 -724.91143,-12.056835 -724.91143,-10.694335 M -723.14768,-10.458085 C -723.14768,-14.083085 -725.94393,-16.546835 -730.07893,-16.546835 C -730.86768,-16.546835 -731.77143,-16.506835 -732.78143,-16.413085 L -734.30643,-16.285585 L -734.30643,-15.918085 C -733.07518,-15.661835 -732.90768,-15.420585 -732.90768,-13.766835 L -732.90768,-7.0405852 C -732.90768,-5.5868352 -733.20268,-5.2393352 -734.67393,-5.0180852 L -734.67393,-4.6330852 L -731.64268,-4.6330852 C -730.57393,-4.5393352 -729.69143,-4.5030852 -729.00893,-4.5030852 C -725.50268,-4.5030852 -723.14768,-6.9093352 -723.14768,-10.458085"
       style="fill:#193476;fill-opacity:1;fill-rule:nonzero;stroke:none"
       id="path2558" />
    <path
       d="M -720.53518,-11.416835 L -721.05268,-11.985585 C -720.83143,-12.131835 -720.66643,-12.259335 -720.53518,-12.373085 C -720.09643,-12.756835 -719.78393,-13.380585 -719.78393,-13.883085 C -719.78393,-14.190585 -719.92893,-14.466835 -720.16893,-14.578085 L -720.53518,-14.780585 C -720.85143,-14.925585 -721.05268,-15.235585 -721.05268,-15.590585 C -721.05268,-16.196835 -720.57268,-16.671835 -719.96643,-16.671835 C -719.21518,-16.671835 -718.64768,-15.829335 -718.64768,-14.691835 C -718.64768,-13.750585 -719.05018,-13.073085 -720.53518,-11.416835"
       style="fill:#193476;fill-opacity:1;fill-rule:nonzero;stroke:none"
       id="path2560" />
    <path
       d="M -711.44018,-9.4505852 L -715.11518,-9.4505852 L -713.33268,-14.834335 L -711.44018,-9.4505852 z M -707.50268,-4.6330852 L -707.50268,-5.0180852 C -708.20268,-5.3505852 -708.43893,-5.6093352 -708.64393,-6.1605852 L -712.32268,-16.413085 L -713.46143,-16.413085 L -716.88393,-7.0405852 C -717.43018,-5.5330852 -717.54393,-5.4068352 -718.66268,-5.0180852 L -718.66268,-4.6330852 L -714.51143,-4.6330852 L -714.51143,-5.0180852 C -715.54393,-5.1655852 -715.94518,-5.4643352 -715.94518,-6.0668352 C -715.94518,-6.2868352 -715.87143,-6.6568352 -715.74018,-7.1668352 L -715.37143,-8.6943352 L -711.18268,-8.6943352 L -710.43018,-6.6568352 C -710.33643,-6.4343352 -710.29768,-6.2155852 -710.29768,-5.9905852 C -710.29768,-5.4780852 -710.51893,-5.2193352 -711.18268,-5.0180852 L -711.18268,-4.6330852 L -707.50268,-4.6330852 z"
       style="fill:#193476;fill-opacity:1;fill-rule:nonzero;stroke:none"
       id="path2562" />
    <path
       d="M -700.09643,-12.853085 C -700.09643,-11.894335 -700.42643,-11.178085 -701.23768,-10.404335 C -701.64143,-10.295585 -701.78893,-10.275585 -702.21018,-10.275585 C -702.81893,-10.275585 -703.05768,-10.313085 -703.64268,-10.531835 L -703.64268,-15.790585 C -702.59518,-15.768085 -702.15393,-15.681835 -701.62393,-15.405585 C -701.32893,-15.258085 -701.07018,-15.073085 -700.85268,-14.834335 C -700.35518,-14.321835 -700.09643,-13.621835 -700.09643,-12.853085 M -694.63893,-3.7505852 L -694.63893,-4.0618352 C -695.55768,-4.1405852 -695.92268,-4.2468352 -696.41768,-4.5768352 C -696.65893,-4.7443352 -696.87893,-4.9093352 -697.04893,-5.0743352 C -697.72643,-5.7543352 -698.55393,-6.8755852 -700.72268,-10.090585 C -699.74893,-11.029335 -699.40143,-11.451835 -699.08893,-12.116835 C -698.82768,-12.629335 -698.69893,-13.215585 -698.69893,-13.786835 C -698.69893,-15.440585 -699.91143,-16.546835 -701.67643,-16.546835 C -702.31893,-16.546835 -702.63393,-16.506835 -703.90143,-16.285585 L -706.69768,-16.493085 L -706.69768,-16.105585 C -705.44518,-15.605585 -705.17018,-15.184335 -705.17018,-13.766835 L -705.17018,-7.0405852 C -705.17018,-5.5868352 -705.46268,-5.2393352 -706.93393,-5.0180852 L -706.93393,-4.6330852 L -701.86018,-4.6330852 L -701.86018,-5.0180852 C -703.33393,-5.2393352 -703.64268,-5.5868352 -703.64268,-7.0405852 L -703.64268,-9.6355852 C -703.31143,-9.5955852 -703.05768,-9.5755852 -702.89018,-9.5755852 C -702.70643,-9.5755852 -702.46893,-9.5955852 -702.11643,-9.6355852 C -700.59393,-6.8018352 -699.98518,-5.9018352 -698.95768,-4.8918352 C -698.09518,-4.0443352 -696.93518,-3.5468352 -695.82893,-3.5468352 C -695.42768,-3.5468352 -695.18768,-3.5855852 -694.63893,-3.7505852"
       style="fill:#193476;fill-opacity:1;fill-rule:nonzero;stroke:none"
       id="path2564" />
    <path
       d="M -685.72143,-13.766835 C -686.60393,-15.164335 -687.28143,-15.605585 -688.51518,-15.605585 L -689.78393,-15.605585 L -689.78393,-7.0405852 C -689.78393,-5.7943352 -689.19518,-5.2593352 -687.50518,-5.0180852 L -687.50518,-4.6330852 L -693.46143,-4.6330852 L -693.46143,-5.0180852 C -691.84143,-5.2930852 -691.31268,-5.8105852 -691.31268,-7.0405852 L -691.31268,-15.605585 L -692.57893,-15.605585 C -693.67768,-15.605585 -694.38268,-15.146835 -695.39268,-13.766835 L -695.74018,-13.971835 L -695.13393,-16.671835 C -693.49518,-16.231835 -693.02018,-16.176835 -690.53893,-16.176835 C -688.09143,-16.176835 -687.61893,-16.231835 -685.98018,-16.671835 L -685.33393,-14.011835 L -685.72143,-13.766835 z"
       style="fill:#193476;fill-opacity:1;fill-rule:nonzero;stroke:none"
       id="path2566" />
    <path
       d="M -674.89393,-10.241835 C -674.89393,-7.1668352 -676.32643,-5.1480852 -678.49643,-5.1480852 C -680.85268,-5.1480852 -682.63393,-7.5955852 -682.63393,-10.793085 C -682.63393,-13.843085 -681.20018,-15.918085 -679.08768,-15.918085 C -676.67768,-15.918085 -674.89393,-13.494335 -674.89393,-10.241835 M -672.99893,-10.498085 C -672.99893,-12.335585 -673.68143,-14.011835 -674.89393,-15.223085 C -675.90518,-16.216835 -677.15643,-16.671835 -678.81018,-16.671835 C -682.19268,-16.671835 -684.54643,-14.154335 -684.54643,-10.498085 C -684.54643,-6.9493352 -682.13643,-4.3768352 -678.81018,-4.3768352 C -675.37268,-4.3768352 -672.99893,-6.8755852 -672.99893,-10.498085"
       style="fill:#193476;fill-opacity:1;fill-rule:nonzero;stroke:none"
       id="path2568" />
    <path
       d="M -671.78518,-4.6330852 L -671.78518,-5.0180852 C -670.31893,-5.2393352 -670.02018,-5.5868352 -670.02018,-7.0405852 L -670.02018,-14.011835 C -670.02018,-15.420585 -670.29643,-15.768085 -671.65893,-16.046835 L -671.65893,-16.413085 L -666.71393,-16.413085 L -666.71393,-16.046835 C -668.18268,-15.809335 -668.50018,-15.460585 -668.50018,-14.011835 L -668.50018,-7.0405852 C -668.50018,-5.5868352 -668.18268,-5.2393352 -666.71393,-5.0180852 L -666.71393,-4.6330852 L -671.78518,-4.6330852 z"
       style="fill:#193476;fill-opacity:1;fill-rule:nonzero;stroke:none"
       id="path2570" />
    <path
       d="M -661.71143,-4.3768352 C -662.70768,-4.3768352 -663.38768,-4.5393352 -664.89268,-5.1480852 L -665.15143,-8.1793352 L -664.76768,-8.3643352 C -664.30643,-7.1493352 -664.03268,-6.6568352 -663.49768,-6.0868352 C -662.90643,-5.4643352 -662.15518,-5.0743352 -661.51268,-5.0743352 C -660.44268,-5.0743352 -659.56018,-5.9568352 -659.56018,-7.0605852 C -659.56018,-7.8343352 -659.89393,-8.2893352 -660.95768,-9.0093352 C -662.55643,-10.074335 -663.12893,-10.498085 -663.75393,-11.104335 C -664.49143,-11.803085 -664.76768,-12.444335 -664.76768,-13.459335 C -664.76768,-15.369335 -663.38768,-16.671835 -661.32518,-16.671835 C -660.53643,-16.671835 -659.94768,-16.546835 -658.67893,-16.046835 L -658.29393,-13.380585 L -658.67893,-13.200585 C -658.97643,-13.730585 -659.26768,-14.210585 -659.52643,-14.615585 C -660.13518,-15.514335 -660.88393,-15.973085 -661.73393,-15.973085 C -662.74143,-15.973085 -663.49768,-15.235585 -663.49768,-14.210585 C -663.49768,-13.698085 -663.26143,-13.050585 -662.87268,-12.611835 C -662.39393,-12.096835 -661.89643,-11.726835 -659.94768,-10.458085 C -659.45518,-10.150585 -659.06768,-9.8518352 -658.81143,-9.5755852 C -658.33143,-9.0805852 -658.05518,-8.3268352 -658.05518,-7.5155852 C -658.05518,-5.7005852 -659.58268,-4.3768352 -661.71143,-4.3768352"
       style="fill:#193476;fill-opacity:1;fill-rule:nonzero;stroke:none"
       id="path2572" />
    <path
       d="M -741.71893,-92.768085 C -741.71893,-92.768085 -753.03893,-95.754335 -759.53143,-78.113085 C -764.01643,-67.995585 -763.25268,-68.756835 -765.85643,-63.315585 C -768.65143,-57.474335 -771.31768,-55.394335 -770.51643,-55.803085 C -770.51643,-55.803085 -760.73643,-54.100585 -752.62018,-70.543085 C -748.14268,-79.615585 -746.74893,-90.765585 -741.35893,-92.780585"
       style="fill:#193476;fill-opacity:1;fill-rule:nonzero;stroke:none"
       id="path2574" />
    <path
       d="M -772.37643,-52.971835 C -771.79768,-53.593085 -771.47768,-54.009335 -771.47768,-54.009335 C -778.81268,-50.106835 -780.07893,-52.344335 -780.67268,-55.074335 C -781.26143,-57.804335 -777.36893,-67.950585 -774.43643,-77.506835 C -771.50393,-87.069335 -775.33893,-90.383085 -777.91393,-89.996835 C -780.49268,-89.604335 -785.21393,-88.434335 -785.21393,-88.434335 C -785.21393,-88.434335 -783.62518,-88.629335 -782.39268,-85.311835 C -781.42268,-82.705585 -787.75018,-64.634335 -787.75018,-64.634335 C -787.75018,-64.634335 -791.84018,-52.925585 -787.57518,-49.190585 C -781.73268,-45.220585 -775.07768,-50.571835 -772.37643,-52.971835"
       style="fill:#f46717;fill-opacity:1;fill-rule:nonzero;stroke:none"
       id="path2576" />
    <path
       d="M -658.54018,-67.648085 C -684.16643,-72.346835 -709.35393,-68.896835 -730.94143,-62.685585 C -731.36518,-61.416835 -731.75143,-60.255585 -732.10143,-59.220585 C -688.15393,-71.583085 -658.54018,-67.648085 -658.54018,-67.648085"
       style="fill:#b3bbe5;fill-opacity:1;fill-rule:nonzero;stroke:none"
       id="path2578" />
    <path
       d="M -743.76143,-58.555585 C -773.79643,-47.839335 -794.21268,-33.365585 -794.21268,-33.365585 C -776.76018,-43.086835 -760.16018,-50.145585 -744.93768,-55.254335 C -744.84393,-55.520585 -744.75018,-55.779335 -744.65893,-56.038085 C -744.35518,-56.890585 -744.05393,-57.728085 -743.76143,-58.555585"
       style="fill:#b3bbe5;fill-opacity:1;fill-rule:nonzero;stroke:none"
       id="path2580" />
    <path
       d="M -736.28768,-35.186835 C -739.81393,-38.713085 -735.13768,-50.611835 -733.64643,-54.716835 C -733.35768,-55.508085 -732.81393,-57.089335 -732.10143,-59.220585 C -731.75143,-60.255585 -731.36518,-61.416835 -730.94143,-62.685585 C -728.91518,-68.776835 -726.13643,-77.250585 -723.54393,-85.204335 C -720.90268,-93.944335 -723.40643,-97.443085 -728.80018,-97.443085 C -732.61893,-96.266835 -738.63893,-95.094335 -738.63893,-95.094335 C -738.63893,-95.094335 -731.73893,-94.946835 -734.52893,-86.138085 C -736.23393,-80.744335 -739.26643,-71.238085 -743.76143,-58.555585 C -744.05393,-57.728085 -744.35518,-56.890585 -744.65893,-56.038085 C -744.75018,-55.779335 -744.84393,-55.520585 -744.93768,-55.254335 C -748.28393,-45.743085 -751.70893,-32.850585 -742.44018,-29.224335 C -735.68643,-26.580585 -724.98018,-32.984335 -719.11143,-40.469335 C -727.91768,-34.453085 -732.76393,-31.660585 -736.28768,-35.186835"
       style="fill:#35af3f;fill-opacity:1;fill-rule:nonzero;stroke:none"
       id="path2582" />
  </g>
</svg>
