<svg width="181.03249999999997" height="93.896248" xmlns="http://www.w3.org/2000/svg">
 <defs>
  <filter height="200%" width="200%" y="-50%" x="-50%" id="svg_90_blur">
   <feGaussianBlur stdDeviation="0" in="SourceGraphic"/>
  </filter>
 </defs>
 <metadata id="metadata2611">image/svg+xml</metadata>
 <g>
  <title>background</title>
  <rect fill="none" id="canvas_background" height="95.896248" width="183.0325" y="-1" x="-1"/>
 </g>
 <g>
  <title>Layer 1</title>
  <path fill="#193476" fill-rule="nonzero" id="svg_91" d="m97.206181,4.8376c0,0 -11.32,-2.98625 -17.8125,14.655c-4.485,10.11749 -3.72125,9.35625 -6.325,14.7975c-2.795,5.84124 -5.46125,7.92125 -4.66,7.51249c0,0 9.78,1.7025 17.89625,-14.74c4.4775,-9.07249 5.87125,-20.2225 11.26125,-22.2375"/>
  <path fill="#f46717" fill-rule="nonzero" id="svg_92" d="m66.548681,44.63385c0.57875,-0.62126 0.89875,-1.03751 0.89875,-1.03751c-7.335,3.90251 -8.60125,1.665 -9.195,-1.06499c-0.58875,-2.73001 3.30375,-12.87626 6.23625,-22.4325c2.9325,-9.5625 -0.9025,-12.87625 -3.4775,-12.49001c-2.57875,0.3925 -7.3,1.5625 -7.3,1.5625c0,0 1.58875,-0.19499 2.82125,3.1225c0.97,2.60626 -5.3575,20.67751 -5.3575,20.67751c0,0 -4.09,11.70875 0.175,15.44375c5.8425,3.97 12.4975,-1.38126 15.19875,-3.78125"/>
  <path fill="#b3bbe5" fill-rule="nonzero" id="svg_93" d="m180.384931,29.9576c-25.62625,-4.69875 -50.81375,-1.24875 -72.40125,4.96249c-0.42375,1.26876 -0.81,2.43 -1.16,3.46501c43.9475,-12.3625 73.56125,-8.4275 73.56125,-8.4275"/>
  <path fill="#b3bbe5" fill-rule="nonzero" id="svg_94" d="m95.163681,39.05009c-30.035,10.71626 -50.45125,25.19 -50.45125,25.19c17.4525,-9.72125 34.0525,-16.77999 49.275,-21.88874c0.09375,-0.26625 0.1875,-0.52501 0.27875,-0.78376c0.30375,-0.8525 0.605,-1.69 0.8975,-2.5175"/>
  <path fill="#35af3f" fill-rule="nonzero" id="svg_95" d="m102.47483,62.41884c-3.52625,-3.52624 1.15,-15.42499 2.64125,-19.53c0.28875,-0.79125 0.8325,-2.37249 1.545,-4.50374c0.35,-1.03501 0.73625,-2.19625 1.16,-3.46501c2.02625,-6.09125 4.805,-14.565 7.3975,-22.51875c2.64125,-8.73999 0.1375,-12.23874 -5.25625,-12.23874c-3.81875,1.17624 -9.83875,2.34874 -9.83875,2.34874c0,0 6.9,0.14751 4.11,8.95625c-1.705,5.39375 -4.7375,14.90001 -9.2325,27.5825c-0.2925,0.8275 -0.59375,1.665 -0.8975,2.5175c-0.09125,0.25875 -0.185,0.51751 -0.27875,0.78376c-3.34625,9.51124 -6.77125,22.40374 2.4975,26.03c6.75375,2.64375 17.46,-3.76001 23.32875,-11.24501c-8.80625,6.01625 -13.6525,8.80875 -17.17625,5.2825"/>
  <g id="svg_121">
   <path filter="url(#svg_90_blur)" fill="#ffffff" fill-rule="nonzero" id="svg_73" d="m10.094931,83.59385l-0.13,4.43624c-0.07125,2.7 -0.1825,3.12125 -1.13875,4.06c-0.75125,0.7375 -1.895,1.13875 -3.28875,1.13875c-1.105,0 -2.04125,-0.25625 -2.795,-0.77125c-0.40375,-0.25875 -0.75625,-0.62375 -1.0125,-1.0275c-0.4775,-0.73375 -0.62625,-1.45375 -0.62625,-2.99875l0,-4.5925c0,-1.54749 -0.19875,-1.89499 -1.26625,-2.28l0,-0.36624l4.55875,0l0,0.36624c-1.47125,0.2375 -1.78125,0.58625 -1.78125,2.03501l0,4.63999c0,1.44875 0.2725,2.2225 1.01,2.955c0.6425,0.645 1.43125,0.9525 2.33375,0.9525c0.88125,0 1.675,-0.33 2.24125,-0.9525c0.58875,-0.64375 0.75375,-1.28375 0.75375,-2.86875l0,-0.42125l-0.1275,-4.30499c-0.0375,-1.465 -0.27625,-1.75625 -1.63625,-2.03501l0,-0.36624l4.3025,0l0,0.36624c-1.15875,0.36501 -1.3625,0.66125 -1.3975,2.03501"/>
   <path filter="url(#svg_90_blur)" fill="#ffffff" fill-rule="nonzero" id="svg_74" d="m23.092431,83.59385l-0.25875,9.11999l-0.69875,0.6625l-7.04,-9.7225l0.1275,6.91125c0.0375,1.525 0.3325,1.84 1.915,2.0225l0,0.385l-4.9475,0l0,-0.385c1.47125,-0.22125 1.71,-0.4975 1.76625,-2.0225l0.25625,-5.95749c0,-2.07501 -0.25625,-2.51625 -1.76375,-3.04876l0,-0.36624l2.74,0l6.76375,9.37249l-0.12875,-6.97124c-0.03875,-1.48751 -0.3125,-1.79751 -1.78375,-2.03501l0,-0.36624l4.8175,0l0,0.36624c-1.45375,0.2375 -1.73,0.53251 -1.765,2.03501"/>
   <path filter="url(#svg_90_blur)" fill="#ffffff" fill-rule="nonzero" id="svg_75" d="m25.682431,92.97259l0,-0.385c1.47125,-0.22125 1.7675,-0.56875 1.7675,-2.0225l0,-6.97124c0,-1.40876 -0.27875,-1.75625 -1.63875,-2.03501l0,-0.36624l4.9475,0l0,0.36624c-1.47125,0.2375 -1.78375,0.58625 -1.78375,2.03501l0,6.97124c0,1.45375 0.3125,1.80125 1.78375,2.0225l0,0.385l-5.07625,0z"/>
   <path filter="url(#svg_90_blur)" fill="#ffffff" fill-rule="nonzero" id="svg_76" d="m40.444931,83.08134l-3.18125,8.49375c-0.23875,0.64625 -0.42125,0.97625 -1.01,1.71l-3.67625,-10.51374c-0.2025,-0.57126 -0.47875,-0.8475 -1.27,-1.21251l0,-0.36624l3.935,0l0,0.36624c-0.8075,0.10875 -1.03,0.27876 -1.03,0.76875c0,0.23876 0.12875,0.83251 0.2575,1.195l2.40875,6.8575l2.04125,-6.21374c0.165,-0.51251 0.25625,-0.97376 0.25625,-1.36c0,-0.62126 -0.31375,-0.9 -1.395,-1.24751l0,-0.36624l4.04375,0l0,0.30749c-0.82875,0.46126 -1.0675,0.72 -1.38,1.58125"/>
   <path filter="url(#svg_90_blur)" fill="#ffffff" fill-rule="nonzero" id="svg_77" d="m50.446181,92.97259l-8.10625,0l0,-0.385c1.4675,-0.22125 1.76125,-0.56875 1.76125,-2.0225l0,-6.72625c0,-1.54749 -0.1825,-1.89499 -1.26625,-2.28l0,-0.36624l7.3525,0l0.25875,2.76875l-0.3875,0.13124c-0.75125,-1.52624 -1.39625,-2.0775 -2.535,-2.14874l-1.895,-0.12876l0,4.815l1.78375,-0.05374c1.30375,-0.055 1.63375,-0.29626 2.02125,-1.47125l0.38625,0l0,3.80624l-0.38625,0c-0.29375,-1.30999 -0.57,-1.52499 -2.02125,-1.58124l-1.78375,-0.06001l0,3.20125c0,1.3625 0.3875,1.75 1.82125,1.75c1.505,0 2.27875,-0.59375 3.2525,-2.41l0.38625,0.10875l-0.6425,3.0525z"/>
   <path filter="url(#svg_90_blur)" fill="#ffffff" fill-rule="nonzero" id="svg_78" d="m59.381181,84.75259c0,0.95876 -0.33375,1.67501 -1.14125,2.44876c-0.40375,0.10874 -0.5525,0.12875 -0.97625,0.12875c-0.60625,0 -0.8425,-0.03751 -1.43125,-0.25626l0,-5.25875c1.0475,0.02251 1.48875,0.10876 2.02,0.385c0.29625,0.14751 0.5525,0.3325 0.77375,0.57126c0.49625,0.51249 0.755,1.21249 0.755,1.98124m5.46,9.1025l0,-0.31125c-0.91875,-0.07875 -1.28875,-0.185 -1.78625,-0.515c-0.2375,-0.1675 -0.45625,-0.3325 -0.62375,-0.4975c-0.6775,-0.68 -1.505,-1.80125 -3.67875,-5.01625c0.975,-0.93874 1.325,-1.36124 1.63875,-2.02625c0.25625,-0.51249 0.38625,-1.09875 0.38625,-1.66999c0,-1.65376 -1.215,-2.76001 -2.97875,-2.76001c-0.6425,0 -0.95625,0.04001 -2.225,0.26125l-2.79375,-0.2075l0,0.3875c1.24875,0.50001 1.5275,0.92125 1.5275,2.33875l0,6.72625c0,1.45375 -0.29625,1.80125 -1.7675,2.0225l0,0.385l5.07625,0l0,-0.385c-1.47375,-0.22125 -1.78375,-0.56875 -1.78375,-2.0225l0,-2.595c0.33,0.04 0.58875,0.06 0.75125,0.06c0.1875,0 0.42375,-0.02 0.77125,-0.06c1.5275,2.83375 2.13625,3.73375 3.16375,4.74375c0.865,0.8475 2.02375,1.345 3.125,1.345c0.40625,0 0.645,-0.03875 1.1975,-0.20375"/>
   <path filter="url(#svg_90_blur)" fill="#ffffff" fill-rule="nonzero" id="svg_79" d="m68.184931,93.22884c-0.99375,0 -1.67125,-0.1625 -3.17875,-0.77125l-0.25875,-3.03125l0.38625,-0.185c0.45875,1.215 0.735,1.7075 1.2675,2.2775c0.58875,0.6225 1.3425,1.0125 1.985,1.0125c1.0675,0 1.9525,-0.8825 1.9525,-1.98625c0,-0.77375 -0.33375,-1.22875 -1.4,-1.94875c-1.6,-1.06499 -2.16875,-1.48874 -2.79375,-2.095c-0.7375,-0.69874 -1.01125,-1.34 -1.01125,-2.35499c0,-1.91 1.38,-3.21251 3.4375,-3.21251c0.78875,0 1.3775,0.125 2.64625,0.625l0.3875,2.66626l-0.3875,0.17999c-0.29,-0.52999 -0.58625,-1.01 -0.845,-1.41499c-0.60875,-0.89875 -1.36,-1.3575 -2.2075,-1.3575c-1.01,0 -1.76375,0.73749 -1.76375,1.76249c0,0.5125 0.24125,1.16001 0.625,1.59876c0.47875,0.51499 0.97375,0.885 2.9225,2.15374c0.4975,0.30751 0.885,0.60625 1.14125,0.8825c0.4775,0.495 0.75375,1.24875 0.75375,2.06c0,1.815 -1.525,3.13875 -3.65875,3.13875"/>
   <path filter="url(#svg_90_blur)" fill="#ffffff" fill-rule="nonzero" id="svg_80" d="m73.444931,92.97259l0,-0.385c1.46875,-0.22125 1.7625,-0.56875 1.7625,-2.0225l0,-6.97124c0,-1.40876 -0.27625,-1.75625 -1.63625,-2.03501l0,-0.36624l4.945,0l0,0.36624c-1.47125,0.2375 -1.78125,0.58625 -1.78125,2.03501l0,6.97124c0,1.45375 0.31,1.80125 1.78125,2.0225l0,0.385l-5.07125,0z"/>
   <path filter="url(#svg_90_blur)" fill="#ffffff" fill-rule="nonzero" id="svg_81" d="m89.087431,83.83884c-0.8825,-1.39749 -1.5625,-1.83874 -2.795,-1.83874l-1.26875,0l0,8.56499c0,1.24625 0.58875,1.78125 2.28125,2.0225l0,0.385l-5.9575,0l0,-0.385c1.61625,-0.275 2.15125,-0.7925 2.15125,-2.0225l0,-8.56499l-1.26875,0c-1.10375,0 -1.80125,0.45875 -2.81125,1.83874l-0.35,-0.205l0.605,-2.7c1.63875,0.44 2.115,0.495 4.59625,0.495c2.44625,0 2.925,-0.055 4.55875,-0.495l0.6425,2.66001l-0.38375,0.24499z"/>
   <path filter="url(#svg_90_blur)" fill="#ffffff" fill-rule="nonzero" id="svg_82" d="m96.604931,78.7951l-3.67625,0.75375l-0.13125,-0.23751l3.3125,-1.78875l0.75125,0.51751l-0.25625,0.755zm1.525,14.17749l-8.10625,0l0,-0.385c1.47,-0.22125 1.76375,-0.56875 1.76375,-2.0225l0,-6.72625c0,-1.54749 -0.185,-1.89499 -1.26875,-2.28l0,-0.36624l7.355,0l0.25625,2.76875l-0.38625,0.13124c-0.75375,-1.52624 -1.395,-2.0775 -2.535,-2.14874l-1.89375,-0.12876l0,4.815l1.785,-0.05374c1.30375,-0.055 1.63375,-0.29626 2.0175,-1.47125l0.3875,0l0,3.80624l-0.3875,0c-0.2925,-1.30999 -0.56875,-1.52499 -2.0175,-1.58124l-1.785,-0.06001l0,3.20125c0,1.3625 0.3875,1.75 1.81875,1.75c1.50875,0 2.2775,-0.59375 3.2525,-2.41l0.3875,0.10875l-0.64375,3.0525z"/>
   <path filter="url(#svg_90_blur)" fill="#ffffff" fill-rule="nonzero" id="svg_83" d="m114.013681,86.91134c0,3.1925 -1.83875,5.36375 -4.54125,5.36375c-1.34,0 -1.93,-0.60875 -1.93,-1.96875l0,-8.61874c1.8875,0.05124 2.70125,0.21875 3.8075,0.82749c0.56625,0.31 1.08125,0.715 1.5225,1.20751c0.81125,0.90374 1.14125,1.82625 1.14125,3.18874m1.76375,0.23625c0,-3.625 -2.79625,-6.08875 -6.93125,-6.08875c-0.78875,0 -1.6925,0.04001 -2.7025,0.13376l-1.525,0.12749l0,0.36751c1.23125,0.25625 1.39875,0.49749 1.39875,2.15124l0,6.72625c0,1.45375 -0.295,1.80125 -1.76625,2.0225l0,0.385l3.03125,0c1.06875,0.09375 1.95125,0.13 2.63375,0.13c3.50625,0 5.86125,-2.40625 5.86125,-5.955"/>
   <path filter="url(#svg_90_blur)" fill="#ffffff" fill-rule="nonzero" id="svg_84" d="m118.389931,86.18884l-0.5175,-0.56875c0.22125,-0.14625 0.38625,-0.27375 0.5175,-0.38749c0.43875,-0.38376 0.75125,-1.0075 0.75125,-1.51c0,-0.30751 -0.145,-0.58375 -0.385,-0.695l-0.36625,-0.20251c-0.31625,-0.14499 -0.5175,-0.455 -0.5175,-0.81c0,-0.60625 0.48,-1.08125 1.08625,-1.08125c0.75125,0 1.31875,0.8425 1.31875,1.98c0,0.94125 -0.4025,1.61875 -1.8875,3.275"/>
   <path filter="url(#svg_90_blur)" fill="#ffffff" fill-rule="nonzero" id="svg_85" d="m127.484931,88.15509l-3.675,0l1.7825,-5.38374l1.8925,5.38374zm3.9375,4.8175l0,-0.385c-0.7,-0.3325 -0.93625,-0.59125 -1.14125,-1.1425l-3.67875,-10.25249l-1.13875,0l-3.4225,9.37249c-0.54625,1.5075 -0.66,1.63375 -1.77875,2.0225l0,0.385l4.15125,0l0,-0.385c-1.0325,-0.1475 -1.43375,-0.44625 -1.43375,-1.04875c0,-0.22 0.07375,-0.59 0.205,-1.1l0.36875,-1.5275l4.18875,0l0.7525,2.0375c0.09375,0.2225 0.1325,0.44125 0.1325,0.66625c0,0.5125 -0.22125,0.77125 -0.885,0.9725l0,0.385l3.68,0z"/>
   <path filter="url(#svg_90_blur)" fill="#ffffff" fill-rule="nonzero" id="svg_86" d="m138.82868,84.91519c0,0.95876 -0.33,1.67501 -1.14125,2.44876c-0.40375,0.10874 -0.55125,0.12875 -0.9725,0.12875c-0.60875,0 -0.8475,-0.03751 -1.4325,-0.25626l0,-5.25875c1.0475,0.02251 1.48875,0.10876 2.01875,0.385c0.295,0.14751 0.55375,0.3325 0.77125,0.57126c0.4975,0.51249 0.75625,1.21249 0.75625,1.98124m5.4575,9.1025l0,-0.31125c-0.91875,-0.07875 -1.28375,-0.185 -1.77875,-0.515c-0.24125,-0.1675 -0.46125,-0.3325 -0.63125,-0.4975c-0.6775,-0.68 -1.505,-1.80125 -3.67375,-5.01625c0.97375,-0.93874 1.32125,-1.36124 1.63375,-2.02625c0.26125,-0.51249 0.39,-1.09875 0.39,-1.66999c0,-1.65376 -1.2125,-2.76001 -2.9775,-2.76001c-0.6425,0 -0.9575,0.04001 -2.225,0.26125l-2.79625,-0.2075l0,0.3875c1.2525,0.50001 1.5275,0.92125 1.5275,2.33875l0,6.72625c0,1.45375 -0.2925,1.80125 -1.76375,2.0225l0,0.385l5.07375,0l0,-0.385c-1.47375,-0.22125 -1.7825,-0.56875 -1.7825,-2.0225l0,-2.595c0.33125,0.04 0.585,0.06 0.7525,0.06c0.18375,0 0.42125,-0.02 0.77375,-0.06c1.5225,2.83375 2.13125,3.73375 3.15875,4.74375c0.8625,0.8475 2.0225,1.345 3.12875,1.345c0.40125,0 0.64125,-0.03875 1.19,-0.20375"/>
   <path filter="url(#svg_90_blur)" fill="#ffffff" fill-rule="nonzero" id="svg_87" d="m153.460777,83.933334c-0.8825,-1.39749 -1.56,-1.83874 -2.79375,-1.83874l-1.26875,0l0,8.56499c0,1.24625 0.58875,1.78125 2.27875,2.0225l0,0.385l-5.95625,0l0,-0.385c1.62,-0.275 2.14875,-0.7925 2.14875,-2.0225l0,-8.56499l-1.26625,0c-1.09875,0 -1.80375,0.45875 -2.81375,1.83874l-0.3475,-0.205l0.60625,-2.7c1.63875,0.44 2.11375,0.495 4.595,0.495c2.4475,0 2.92,-0.055 4.55875,-0.495l0.64625,2.66001l-0.3875,0.24499z"/>
   <path filter="url(#svg_90_blur)" fill="#ffffff" fill-rule="nonzero" id="svg_88" d="m164.288277,87.458334c0,3.075 -1.4325,5.09375 -3.6025,5.09375c-2.35625,0 -4.1375,-2.4475 -4.1375,-5.64499c0,-3.05001 1.43375,-5.125 3.54625,-5.125c2.41,0 4.19375,2.42375 4.19375,5.67624m1.895,-0.25624c0,-1.83751 -0.6825,-3.51375 -1.895,-4.725c-1.01125,-0.99375 -2.2625,-1.44876 -3.91625,-1.44876c-3.3825,0 -5.73625,2.51751 -5.73625,6.17376c0,3.54874 2.41,6.12124 5.73625,6.12124c3.4375,0 5.81125,-2.49875 5.81125,-6.12124"/>
   <path filter="url(#svg_90_blur)" fill="#ffffff" fill-rule="nonzero" id="svg_89" d="m167.397027,93.067084l0,-0.385c1.46625,-0.22125 1.765,-0.56875 1.765,-2.0225l0,-6.97124c0,-1.40876 -0.27625,-1.75625 -1.63875,-2.03501l0,-0.36624l4.945,0l0,0.36624c-1.46875,0.2375 -1.78625,0.58625 -1.78625,2.03501l0,6.97124c0,1.45375 0.3175,1.80125 1.78625,2.0225l0,0.385l-5.07125,0z"/>
   <path filter="url(#svg_90_blur)" fill="#ffffff" fill-rule="nonzero" id="svg_90" d="m177.213681,93.22884c-0.99625,0 -1.67625,-0.1625 -3.18125,-0.77125l-0.25875,-3.03125l0.38375,-0.185c0.46125,1.215 0.735,1.7075 1.27,2.2775c0.59125,0.6225 1.3425,1.0125 1.985,1.0125c1.07,0 1.9525,-0.8825 1.9525,-1.98625c0,-0.77375 -0.33375,-1.22875 -1.3975,-1.94875c-1.59875,-1.06499 -2.17125,-1.48874 -2.79625,-2.095c-0.7375,-0.69874 -1.01375,-1.34 -1.01375,-2.35499c0,-1.91 1.38,-3.21251 3.4425,-3.21251c0.78875,0 1.3775,0.125 2.64625,0.625l0.385,2.66626l-0.385,0.17999c-0.2975,-0.52999 -0.58875,-1.01 -0.8475,-1.41499c-0.60875,-0.89875 -1.3575,-1.3575 -2.2075,-1.3575c-1.0075,0 -1.76375,0.73749 -1.76375,1.76249c0,0.5125 0.23625,1.16001 0.625,1.59876c0.47875,0.51499 0.97625,0.885 2.925,2.15374c0.4925,0.30751 0.88,0.60625 1.13625,0.8825c0.48,0.495 0.75625,1.24875 0.75625,2.06c0,1.815 -1.5275,3.13875 -3.65625,3.13875"/>
  </g>
 </g>
</svg>